# xmcd
#
# Track frame offsets:
#	150
#	14527
#	28713
#	44538
#	68599
#	94060
#	108265
#	123640
#	135415
#	167184
#	183577
#	192877
#	217419
#	231856
#
# Disc length: 3320 seconds
#
# Revision: 0
# Processed by: cddbd v1.5.2PL0 Copyright (c) Steve Scherf et al.
# Submitted via: EasyCDDAExtractor 16.0.8.2
#
DISCID=cb0cf60e
DTITLE=Συλλογικός δίσκος - Τα καλ. παραδ. τραγ. 2 Θρακ.-Ποντιακά
DYEAR=1900
DGENRE=Παραδοσιακή
TTITLE0=Άνευ ερμηνευτού - Κοκονίτικος ή Καστρινός [Ρωμυλία-Θράκη]
TTITLE1=Άγνωστος - Πάρθεν η Ρωμανία [Πόντος]
TTITLE2=Χορωδία - Η κορ επήγεν σο Παρχάρ [Πόντος]
TTITLE3=Άγνωστος - Ακρίτας [Πόντος]
TTITLE4=Άγνωστος - Τ' αδέρφια (Ντούσκο)[Ρωμυλία-Θράκη]
TTITLE5=Άγνωστος - Μανχουτάγας [Πόντος]
TTITLE6=Χορωδία - Ο έταιρον και η λυγερή [Πόντος]
TTITLE7=Χορωδία - Πάει η νύφε σο νερόν [Πόντος]
TTITLE8=Άγνωστος - Πώς πιάνεται η αγάπη-Τσέστος [Αν. Ρωμυλία-Θράκη]
TTITLE9=Άγνωστος - Τα κάστρα [Πόντος]
TTITLE10=Χορωδία - Της Σουμέλας η Παναγιά [Πόντος]
TTITLE11=Άγνωστος - Τσιάμπασιν [Πόντος]
TTITLE12=Άνευ ερμηνευτού - Σ' αυτό τ' αλώνι [Θράκη]
TTITLE13=Άνευ ερμηνευτού - Πυρρίχιος χορός [Πόντος]
EXTD=
EXTT0=
EXTT1=
EXTT2=
EXTT3=
EXTT4=
EXTT5=
EXTT6=
EXTT7=
EXTT8=
EXTT9=
EXTT10=
EXTT11=
EXTT12=
EXTT13=
PLAYORDER=
